# xmcd
#
# Track frame offsets:
#	150
#	10798
#	21314
#	30090
#	38347
#	50061
#	61782
#	75441
#	90254
#	104594
#
# Disc length: 1559 seconds
#
# Revision: 0
# Processed by: cddbd v1.5.2PL0 Copyright (c) Steve Scherf et al.
# Submitted via: EasyCDDAExtractor 16.0.6.1
#
DISCID=6106150a
DTITLE=Συλλογικός δίσκος - Λαϊκό τραγούδι στον κινηματογράφο 4
DYEAR=2008
DGENRE=Λαϊκή
TTITLE0=Βάνου Τζένη - Τις νύχτες μου μετρώ [Μίμης Πλέσσας-Κώστας Κινδύνης]
TTITLE1=Βουγιουκλάκη Αλίκη - Το φεγγαράκι [Γεράσιμος Λαυράνος-Αλέκος Σακελλάρι
TTITLE1=ος]
TTITLE2=Κοντού Μάρω - Σ' αυτό τον δρόμο [Γιώργος Κατσαρός-Πυθαγόρας]
TTITLE3=Βλαχοπούλου Ρένα - Η Αθήνα την νύχτα [Μίμης Πλέσσας-Γιώργος Σαντοριναί
TTITLE3=ος]
TTITLE4=Μαβίλη Αλέκα - Το τραγούδι της Αθήνας[Σταύρος Ξαρχάκος-Βαγγέλης Γκούφα
TTITLE4=ς]
TTITLE5=Βούρτση Μάρθα - Και πήρα τα μάτια μου [Απόστολος Καλδάρας]
TTITLE6=Καρέζη Τζένη - Ούτε ένα ευχαριστώ [Σταύρος Ξαρχάκος-Λευτέρης Παπαδόπου
TTITLE6=λος]
TTITLE7=Πάνου Πόλυ - Άσε πρώτα να ξεχάσω [Απόστολος Καλδάρας-Γ. Σαμολαδάς]
TTITLE8=Πάνου Πόλυ-Χρηστάκης - Σβήσε το φως να κοιμηθούμε [Γιάννης Παπαϊωάννου
TTITLE8=Χαρ. Βασιλειάδης]
TTITLE9=Σαμπάχ Σούλη-Περπινιάδης Βαγγέλης - Γιατί να παίζεις με καρδιές [Βαγγέ
TTITLE9=λης Περπινιάδης-Γεώργιος Αρίων]
EXTD=
EXTT0=
EXTT1=
EXTT2=
EXTT3=
EXTT4=
EXTT5=
EXTT6=
EXTT7=
EXTT8=
EXTT9=
PLAYORDER=
